<?xml version="1.0" encoding="iso-8859-1"?>
<!-- Generator: Adobe Illustrator 18.0.0, SVG Export Plug-In . SVG Version: 6.00 Build 0)  -->
<!DOCTYPE svg PUBLIC "-//W3C//DTD SVG 1.1//EN" "http://www.w3.org/Graphics/SVG/1.1/DTD/svg11.dtd">
<svg xmlns="http://www.w3.org/2000/svg" xmlns:xlink="http://www.w3.org/1999/xlink" version="1.1" id="Capa_1" x="0px" y="0px" viewBox="0 0 430 430" style="enable-background:new 0 0 430 430;" xml:space="preserve" width="512px" height="512px">
<path d="M323.424,128.966c-4.113,0-8.213,0.234-12.277,0.703c-4.898-20.225-15.654-38.647-31.178-53.025  c-19.752-18.294-45.463-28.369-72.4-28.369c-49.559,0-91.801,33.842-103.422,80.719C46.496,130.286,0,177.587,0,235.542  c0,58.77,47.811,106.58,106.576,106.58h62.537l17.182,24.629c6.541,9.377,17.272,14.975,28.705,14.975s22.164-5.598,28.706-14.976  l17.181-24.628h62.537c58.766,0,106.576-47.81,106.576-106.58C430,176.776,382.19,128.966,323.424,128.966z M277.339,285.248  l-50.036,71.726c-2.806,4.021-7.399,6.418-12.303,6.418c-4.903,0-9.497-2.397-12.303-6.418l-50.036-71.727  c-3.197-4.584-3.581-10.565-0.996-15.52c2.585-4.955,7.71-8.063,13.299-8.063H186v-62.143c0-8.284,6.716-15,15-15h28  c8.284,0,15,6.716,15,15v62.143h21.036c5.589,0,10.714,3.108,13.299,8.063C280.92,274.684,280.536,280.664,277.339,285.248z" fill="#FFFFFF"/>
<g>
</g>
<g>
</g>
<g>
</g>
<g>
</g>
<g>
</g>
<g>
</g>
<g>
</g>
<g>
</g>
<g>
</g>
<g>
</g>
<g>
</g>
<g>
</g>
<g>
</g>
<g>
</g>
<g>
</g>
</svg>
