<?xml version="1.0" encoding="UTF-8" standalone="no"?>
<svg
   xmlns:dc="http://purl.org/dc/elements/1.1/"
   xmlns:cc="http://creativecommons.org/ns#"
   xmlns:rdf="http://www.w3.org/1999/02/22-rdf-syntax-ns#"
   xmlns:svg="http://www.w3.org/2000/svg"
   xmlns="http://www.w3.org/2000/svg"
   xmlns:sodipodi="http://sodipodi.sourceforge.net/DTD/sodipodi-0.dtd"
   xmlns:inkscape="http://www.inkscape.org/namespaces/inkscape"
   width="200px"
   height="200px"
   viewBox="0 0 100 100"
   preserveAspectRatio="xMidYMid"
   class="lds-eclipse"
   style="background: rgba(0, 0, 0, 0) none repeat scroll 0% 0%;"
   id="svg2"
   version="1.1"
   inkscape:version="0.91 r13725"
   sodipodi:docname="milis_7.svg">
  <metadata
     id="metadata10">
    <rdf:RDF>
      <cc:Work
         rdf:about="">
        <dc:format>image/svg+xml</dc:format>
        <dc:type
           rdf:resource="http://purl.org/dc/dcmitype/StillImage" />
        <dc:title></dc:title>
      </cc:Work>
    </rdf:RDF>
  </metadata>
  <defs
     id="defs8" />
  <sodipodi:namedview
     pagecolor="#ffffff"
     bordercolor="#666666"
     borderopacity="1"
     objecttolerance="10"
     gridtolerance="10"
     guidetolerance="10"
     inkscape:pageopacity="0"
     inkscape:pageshadow="2"
     inkscape:window-width="1440"
     inkscape:window-height="841"
     id="namedview6"
     showgrid="false"
     inkscape:zoom="2.36"
     inkscape:cx="129.73927"
     inkscape:cy="75.987213"
     inkscape:window-x="0"
     inkscape:window-y="0"
     inkscape:window-maximized="1"
     inkscape:current-layer="svg2" />
  <path
     ng-attr-d="{{config.pathCmd}}"
     ng-attr-fill="{{config.color}}"
     d="M 68.834284,14.732373 A 40.000001,40.000001 0 1 0 31.134806,85.292628 42.000001,40.000001 28.115044 1 1 68.834284,14.732373"
     id="path4"
     inkscape:connector-curvature="0"
     inkscape:transform-center-x="11.361198"
     inkscape:transform-center-y="-2.575396"
     style="fill:#3a9104;stroke:none">
    <animateTransform
       attributeName="transform"
       type="rotate"
       calcMode="linear"
       values="0 50 51;360 50 51"
       keyTimes="0;1"
       dur="1s"
       begin="0s"
       repeatCount="indefinite" />
  </path>
  <path
     style="fill:#3a9104;fill-opacity:1;stroke-width:0.31999999"
     d="m 58.418512,76.379012 c -0.04226,-0.06838 -0.07933,-0.557986 -0.08236,-1.088008 -0.0048,-0.849104 -0.03855,-1.026447 -0.283365,-1.491663 -0.152819,-0.290393 -0.277851,-0.574455 -0.277851,-0.631247 0,-0.05679 0.193565,-0.014 0.430143,0.09506 1.011402,0.466318 2.396136,1.00636 2.949853,1.150432 0.884789,0.230212 1.87413,1.095713 1.059939,0.927262 -0.321849,-0.06658 -0.479461,-0.157701 -1.446429,-0.83616 -0.310284,-0.217706 -0.512509,-0.278572 -0.925565,-0.278572 -0.85614,0 -1.292254,0.553978 -1.29476,1.644664 -0.0016,0.672177 -0.0093,0.702798 -0.129605,0.50823 z m -13.092414,-0.74964 c 0,-0.821456 0.180939,-1.418228 0.809038,-2.668378 0.47869,-0.952768 1.414067,-1.999197 2.910429,-3.255977 0.459241,-0.385711 0.834828,-0.755957 0.834639,-0.822768 -3.03e-4,-0.08968 -0.457185,-0.12216 -1.745874,-0.124093 -1.209299,-0.0019 -1.868531,-0.04521 -2.145933,-0.141252 l -0.400404,-0.138626 1.108876,-0.526716 c 2.072168,-0.984284 4.27697,-2.894878 4.458733,-3.863771 0.150006,-0.799595 -0.370033,-0.646876 -1.401019,0.411441 -0.771174,0.791611 -1.126636,0.970479 -1.930993,0.971649 -0.553481,9.48e-4 -1.687328,0.410318 -2.801122,1.011673 -1.44498,0.780168 -2.844801,1.43045 -3.208575,1.490531 -0.371258,0.06132 -1.010236,-0.265945 -1.475846,-0.755879 l -0.281782,-0.2965 0.410056,-0.284171 c 0.499074,-0.345856 1.141385,-1.040524 1.069556,-1.156738 -0.127733,-0.206681 -1.028616,-0.319824 -2.025349,-0.25437 l -1.030344,0.06767 -0.365033,-0.426454 c -0.200766,-0.234552 -0.493604,-0.673781 -0.650749,-0.976064 -0.230772,-0.443911 -0.259162,-0.566239 -0.147634,-0.6361 0.07594,-0.04757 0.634963,-0.143731 1.242265,-0.213679 1.05088,-0.121045 1.101115,-0.137513 1.040598,-0.341113 -0.185211,-0.623135 -0.423653,-0.788964 -1.76308,-1.226195 -1.496268,-0.488424 -2.117308,-0.871903 -2.638234,-1.62904 l -0.31595,-0.459219 0.993697,0.07294 0.993696,0.07294 -0.158877,-0.243252 c -0.155933,-0.238736 -0.599123,-0.592003 -2.312805,-1.843539 -1.001486,-0.731404 -1.463945,-1.292715 -1.560009,-1.893468 -0.0378,-0.23642 -0.04893,-0.449663 -0.02474,-0.473871 0.0242,-0.0242 0.256931,0.118504 0.517162,0.317142 0.260226,0.198638 0.529742,0.361159 0.598926,0.361159 0.06918,0 0.372114,0.183786 0.673189,0.408418 0.66095,0.493133 0.943848,0.628537 4.80538,2.299999 3.608493,1.561938 5.358075,2.221229 7.335032,2.764057 3.453646,0.948294 4.608779,1.032257 6.831679,0.496575 1.380949,-0.332786 1.47222,-0.341505 3.592958,-0.343337 1.852828,-0.0016 2.348887,0.03206 3.339932,0.226629 1.30038,0.255299 2.272129,0.512123 2.202225,0.582027 -0.04504,0.04504 -2.229282,0.290233 -3.695073,0.414782 -0.403576,0.03429 -0.733773,0.09338 -0.733773,0.13131 0,0.196961 1.048803,0.930523 2.241667,1.567884 l 0.817221,0.436649 -0.947484,0.47425 c -0.521119,0.260835 -1.106894,0.569136 -1.301724,0.68511 -0.399691,0.23792 -1.012101,0.785401 -1.012101,0.9048 0,0.04332 0.148021,0.157543 0.328934,0.253838 0.273656,0.145657 0.689442,0.181994 2.474106,0.216226 1.944302,0.03729 2.161372,0.05905 2.318213,0.232359 0.221429,0.244676 0.5617,0.2417 1.281266,-0.01125 0.316756,-0.111335 0.702307,-0.202167 0.856779,-0.201854 0.393308,9.49e-4 1.039931,0.192192 1.039931,0.307821 0,0.05305 -0.03549,0.09645 -0.07886,0.09645 -0.04338,0 -0.25454,0.17064 -0.46926,0.379199 l -0.390405,0.379201 0.065,1.467883 c 0.03575,0.807338 0.09349,1.820855 0.128337,2.252264 l 0.06334,0.784378 -0.634169,0 -0.63417,0 0.05069,0.70847 c 0.02787,0.389659 0.03128,0.708471 0.0075,0.708471 -0.02372,0 -0.507245,-0.333351 -1.074493,-0.740779 -0.567251,-0.407427 -1.515542,-1.067693 -2.107317,-1.467255 l -1.075956,-0.726474 -0.611887,0.06395 -0.611888,0.06395 -0.813641,-1.624887 c -0.761906,-1.521574 -1.024685,-1.938664 -1.021778,-1.621791 6.32e-4,0.07287 0.137304,0.813641 0.303629,1.646161 0.430127,2.152912 0.430523,2.150812 -0.331298,1.762159 -0.232777,-0.118754 -0.549774,-0.252206 -0.704438,-0.296565 -0.279204,-0.08007 -0.281213,-0.07723 -0.281213,0.398012 l 0,0.478664 -0.328932,-0.03789 c -0.447586,-0.05156 -2.052867,0.287355 -3.986058,0.84154 -3.211447,0.920617 -4.940989,1.720739 -6.084342,2.81475 l -0.430143,0.411577 z M 65.611823,75.07594 c -0.0074,-1.185196 -0.0012,-1.197082 0.527459,-0.996117 0.154397,0.0587 1.016086,0.148808 1.91487,0.200238 2.268358,0.129805 2.449423,0.237493 0.641381,0.381461 -0.801601,0.06383 -1.629489,0.165251 -1.839756,0.225382 -0.445976,0.127543 -1.084552,0.65234 -1.086794,0.893154 -9.49e-4,0.09165 -0.03501,0.218854 -0.07591,0.28268 -0.04089,0.06382 -0.07746,-0.380237 -0.08126,-0.986798 z m 4.751433,-4.20348 c 0.185118,-1.056807 0.191129,-1.346968 0.03292,-1.588436 -0.183076,-0.279406 -0.705665,-0.418155 -0.993918,-0.263886 -0.162005,0.0867 -0.185521,0.170694 -0.130266,0.465234 0.06411,0.341727 0.05692,0.353805 -0.145936,0.245239 -0.420712,-0.225159 -0.510956,-0.60785 -0.275965,-1.170255 l 0.144455,-0.345734 0.423434,0.16633 c 0.396416,0.155715 0.455665,0.154883 0.928547,-0.01306 0.501948,-0.178276 0.506082,-0.178016 0.659857,0.04153 0.229792,0.328077 0.748784,0.503179 1.491377,0.503179 0.758931,0 0.790843,0.05258 0.447786,0.737807 -0.450113,0.899065 -1.147414,1.409027 -2.104321,1.538971 l -0.546474,0.0742 z m 1.41648,-3.190291 c -0.118368,-0.130419 -0.342172,-0.442076 -0.49734,-0.692571 -0.36522,-0.589589 -0.521336,-0.701345 -0.985216,-0.705251 -0.411831,-0.0035 -0.530879,0.156651 -0.65111,0.875752 l -0.05389,0.322316 -0.406552,-0.269045 -0.406551,-0.269042 -0.337115,0.389985 -0.337118,0.389988 -0.556301,-0.508429 C 66.676462,66.41884 65.83021,66.21931 64.657224,66.534153 c -0.842512,0.226141 -0.976156,0.205032 -1.050337,-0.165881 l -0.06354,-0.317691 -0.531072,0.06446 c -0.292089,0.03546 -0.9182,0.0876 -1.391357,0.115882 l -0.860287,0.05141 0.809681,-0.399962 c 0.445325,-0.21998 1.151265,-0.523267 1.568757,-0.673971 0.417491,-0.150702 0.776952,-0.288702 0.798801,-0.306667 0.119482,-0.09824 -0.312114,-0.37147 -1.183444,-0.749195 -0.53993,-0.234061 -1.048381,-0.488506 -1.129893,-0.565435 -0.12719,-0.120039 -0.06979,-0.139996 0.40484,-0.140784 1.048942,-0.0019 4.346183,-0.89327 4.89224,-1.322799 0.472891,-0.37198 0.362417,-0.635619 -0.467913,-1.116642 -0.971032,-0.562535 -3.47496,-2.230616 -3.921892,-2.612707 l -0.354235,-0.302843 0.56337,-0.0042 c 1.184269,-0.0087 2.744014,0.409433 4.672965,1.252554 2.314652,1.011708 3.650443,1.885082 5.030416,3.289025 0.816916,0.831111 0.857179,0.858001 0.922326,0.616021 0.06237,-0.231736 0.0916,-0.203183 0.347221,0.339399 0.210839,0.447531 0.304338,0.855965 0.38229,1.669966 0.120035,1.253462 0.02435,1.764556 -0.424356,2.266748 -0.259951,0.290938 -0.351875,0.324613 -0.981825,0.359673 -0.626401,0.03486 -0.716279,0.01528 -0.910245,-0.198442 z m -1.55596,-0.338335 c 0,-0.51486 0.162813,-0.596267 0.506051,-0.253026 0.20594,0.20594 0.282554,0.466309 0.1049,0.356515 -0.05364,-0.03315 -0.190268,0.03248 -0.30363,0.145844 -0.113362,0.113362 -0.228883,0.206112 -0.256716,0.206112 -0.02783,0 -0.05061,-0.204951 -0.05061,-0.455445 z m -6.42684,-6.286916 c -0.278328,-0.08008 -0.879089,-0.213711 -1.335025,-0.296949 -0.455932,-0.08325 -1.02082,-0.219036 -1.255305,-0.301765 -0.234484,-0.08273 -1.022832,-0.216485 -1.751883,-0.297235 -1.480217,-0.163945 -3.684462,-0.08074 -4.969116,0.187567 -0.389659,0.08138 -1.060533,0.196449 -1.49083,0.255704 l -0.782364,0.107735 -1.596074,-0.766555 c -2.948249,-1.415967 -4.967406,-2.154645 -7.466258,-2.731419 -2.167705,-0.50034 -2.063971,-0.449557 -2.938594,-1.438644 -1.117561,-1.263819 -4.327765,-6.139243 -5.077966,-7.712044 -2.392774,-5.016448 -5.482216,-7.104483 -13.84482,-9.357185 -4.259442,-1.147401 -5.336017,-1.472252 -6.072602,-1.83237 -1.339629,-0.65495 -1.410072,-0.872077 -0.181135,-0.5583 1.145316,0.292425 3.667994,0.689214 5.465656,0.859687 1.217026,0.115411 1.641292,0.120954 2.024201,0.02645 0.266449,-0.06576 0.471645,-0.165116 0.455993,-0.220782 -0.01566,-0.05566 -0.630501,-0.353015 -1.366336,-0.660776 -1.31291,-0.549123 -2.764591,-1.344326 -3.766594,-2.063269 -0.27815,-0.199574 -0.451985,-0.362862 -0.386303,-0.362862 0.06568,0 0.908114,0.275442 1.872065,0.612093 2.318846,0.809839 4.574831,1.488325 6.863744,2.064269 2.14222,0.539031 2.428347,0.624525 4.12269,1.23185 1.237183,0.443456 1.573174,0.528652 1.3882,0.351996 -0.05288,-0.0505 -1.120902,-0.561658 -2.373376,-1.135897 -3.939337,-1.806124 -8.649164,-4.851216 -9.644908,-6.235818 -0.169858,-0.236189 -0.289394,-0.448873 -0.265634,-0.47263 0.02375,-0.02376 0.452949,0.273117 0.953765,0.65972 0.500816,0.386603 1.265727,0.882393 1.699805,1.101756 0.434074,0.219362 0.921426,0.492973 1.083001,0.608026 1.359745,0.968224 6.471741,2.814445 7.514581,2.713925 0.327557,-0.03158 0.319675,-0.0417 -1.44182,-1.853819 -1.687309,-1.735794 -3.036304,-3.354995 -3.036304,-3.644481 0,-0.07376 -0.159405,-0.466737 -0.354234,-0.873277 -0.378324,-0.789432 -0.47718,-1.221096 -0.18154,-0.792699 0.867998,1.257761 3.54978,4.079024 5.011209,5.271844 2.337745,1.908071 7.062516,4.598432 7.062516,4.021511 0,-0.170783 -0.465987,-0.978454 -1.786753,-3.096889 -1.379393,-2.212464 -2.138294,-3.696673 -2.639313,-5.161797 -0.339515,-0.992844 -0.372484,-1.187212 -0.376745,-2.221169 -0.0055,-1.35025 0.16125,-1.728743 0.341739,-0.775396 0.385595,2.036701 0.932689,3.348948 2.209256,5.299046 2.54036,3.880683 7.55717,8.496369 12.028534,11.066781 0.809111,0.465126 1.558809,0.635598 1.558809,0.354454 0,-0.06419 -0.07347,-0.757675 -0.163268,-1.541069 -0.17188,-1.499438 -0.160513,-3.716566 0.02069,-4.03606 0.07627,-0.134489 0.106802,-0.01794 0.125099,0.477701 0.06638,1.798098 1.245248,4.501097 2.632585,6.036227 0.396494,0.438732 0.739334,0.693589 1.288132,0.957548 0.813508,0.391284 0.782089,0.343215 1.054296,1.612906 0.364342,1.699441 0.903016,3.379744 1.541193,4.80748 1.147717,2.567676 2.200108,4.075987 4.266422,6.114725 1.437614,1.418428 2.065939,1.930008 3.783804,3.080747 0.514906,0.344921 0.936192,0.648722 0.936192,0.675119 0,0.07447 -0.208644,0.04267 -0.759076,-0.115709 z m 6.204744,-1.952 c -0.896712,-0.610149 -1.193504,-0.743935 -3.205076,-1.444771 -1.574112,-0.54842 -2.617493,-0.756542 -4.51782,-0.901165 -1.847786,-0.140625 -1.939548,-0.176052 -2.658235,-1.0263 -0.509197,-0.602412 -1.375841,-1.991971 -1.493776,-2.39509 -0.0656,-0.224211 -0.04978,-0.23666 0.218874,-0.172314 0.159266,0.03815 0.887701,0.09573 1.618741,0.127959 1.642511,0.07241 2.495749,-0.09271 3.762947,-0.728205 1.397461,-0.700832 2.043197,-1.52493 2.043197,-2.607557 0,-0.716661 -0.165696,-1.059113 -0.740263,-1.529929 -0.646074,-0.529409 -1.323517,-0.794639 -2.169526,-0.849403 -1.264634,-0.08186 -0.800581,-0.187247 0.759076,-0.172382 1.590965,0.01516 1.458092,-0.01046 4.174915,0.805743 0.718662,0.215909 1.586946,0.403205 2.010176,0.43361 l 0.745044,0.05352 -0.0747,-0.241755 c -0.351888,-1.138817 -1.684822,-2.1352 -4.46097,-3.334625 -1.502293,-0.649061 -1.506889,-0.652052 -1.053432,-0.685385 0.708761,-0.0521 2.302276,0.176669 3.116596,0.447424 1.102074,0.366434 1.818645,0.760528 3.689475,2.029117 1.761136,1.194205 2.098173,1.329896 2.311795,0.930731 0.185278,-0.346188 0.06224,-2.139843 -0.196214,-2.860877 -0.467623,-1.304497 -1.508613,-2.602093 -2.887931,-3.599824 -0.496606,-0.359222 -0.71181,-0.569055 -0.606754,-0.591615 0.220011,-0.04725 1.4875,0.590341 2.119467,1.066158 0.670669,0.504954 3.165731,2.674934 4.390887,3.818798 1.841194,1.71902 2.433406,1.877825 2.749554,0.737306 0.153625,-0.554191 -0.01035,-1.923023 -0.372294,-3.107656 -0.350371,-1.146779 -1.344931,-3.169611 -1.860621,-3.784297 -0.228387,-0.272233 -0.396978,-0.513245 -0.374642,-0.535582 0.02233,-0.02234 0.313258,0.11918 0.646499,0.314482 1.919386,1.124924 3.622479,4.246744 4.093308,7.503167 0.121851,0.842772 0.127392,0.854264 0.411894,0.854264 1.079051,0 2.179123,-1.732055 2.213294,-3.484814 0.0065,-0.337808 0.04472,-0.750828 0.0848,-0.917825 l 0.07282,-0.303629 0.0918,0.303629 c 0.05048,0.166997 0.09007,1.123433 0.08798,2.125413 -0.0038,1.689553 -0.02378,1.88634 -0.278473,2.711248 -0.341401,1.105611 -0.876688,2.181758 -1.340718,2.695381 -0.601339,0.665611 -1.292554,1.135403 -5.005977,3.402373 -1.975697,1.206119 -3.888208,2.40366 -4.250033,2.661204 -0.894673,0.636823 -2.187478,1.887891 -2.497453,2.416824 -0.139951,0.238809 -0.307454,0.434195 -0.372232,0.434195 -0.06477,0 -0.512967,-0.268899 -0.995977,-0.597554 z"
     id="path4487"
     inkscape:connector-curvature="0" />
</svg>
