<?xml version="1.0" encoding="iso-8859-1"?>
<!-- Generator: Adobe Illustrator 19.0.0, SVG Export Plug-In . SVG Version: 6.00 Build 0)  -->
<svg xmlns="http://www.w3.org/2000/svg" xmlns:xlink="http://www.w3.org/1999/xlink" version="1.1" id="Layer_1" x="0px" y="0px" viewBox="0 0 330 330" style="enable-background:new 0 0 330 330;" xml:space="preserve" width="512px" height="512px">
<g id="XMLID_16_">
	<path id="XMLID_17_" d="M330,144.961c0-46.869-38.131-85-85-85h-1.666C229.162,24.136,194.357,0,155,0   c-50.928,0-92.625,40.283-94.902,90.659C26.17,95.482,0,124.722,0,159.961c0,38.598,31.402,70,70,70h50.12   C122.72,285.564,168.766,330,225,330c57.896,0,105-47.103,105-105c0-15.009-3.172-29.289-8.871-42.215   C326.949,171.084,330,158.165,330,144.961z M225,300c-41.356,0-75-33.645-75-75s33.644-75,75-75c41.355,0,75,33.645,75,75   S266.355,300,225,300z" fill="#FFFFFF"/>
	<path id="XMLID_20_" d="M255,210h-60c-8.284,0-15,6.716-15,15s6.716,15,15,15h60c8.284,0,15-6.716,15-15S263.284,210,255,210z" fill="#FFFFFF"/>
</g>
<g>
</g>
<g>
</g>
<g>
</g>
<g>
</g>
<g>
</g>
<g>
</g>
<g>
</g>
<g>
</g>
<g>
</g>
<g>
</g>
<g>
</g>
<g>
</g>
<g>
</g>
<g>
</g>
<g>
</g>
</svg>
